ISO-10303-21;
HEADER;
FILE_DESCRIPTION(('Open CASCADE Model'),'2;1');
FILE_NAME('Open CASCADE Shape Model','2026-08-19T14:54:55',('Author'),(
    'Open CASCADE'),'Open CASCADE STEP processor 7.9','build123d',
  'Unknown');
FILE_SCHEMA(('AUTOMOTIVE_DESIGN { 1 0 10303 214 1 1 1 1 }'));
ENDSEC;
DATA;
#1 = APPLICATION_PROTOCOL_DEFINITION('international standard',
  'automotive_design',2000,#2);
#2 = APPLICATION_CONTEXT(
  'core data for automotive mechanical design processes');
#3 = SHAPE_DEFINITION_REPRESENTATION(#4,#10);
#4 = PRODUCT_DEFINITION_SHAPE('','',#5);
#5 = PRODUCT_DEFINITION('design','',#6,#9);
#6 = PRODUCT_DEFINITION_FORMATION('','',#7);
#7 = PRODUCT('COMPOUND','COMPOUND','',(#8));
#8 = PRODUCT_CONTEXT('',#2,'mechanical');
#9 = PRODUCT_DEFINITION_CONTEXT('part definition',#2,'design');
#10 = ADVANCED_BREP_SHAPE_REPRESENTATION('',(#11,#15),#1209);
#11 = AXIS2_PLACEMENT_3D('',#12,#13,#14);
#12 = CARTESIAN_POINT('',(0.,0.,0.));
#13 = DIRECTION('',(0.,0.,1.));
#14 = DIRECTION('',(1.,0.,-0.));
#15 = MANIFOLD_SOLID_BREP('',#16);
#16 = CLOSED_SHELL('',(#17,#341,#417,#670,#839,#866,#893,#920,#947,#974,
    #1101,#1128,#1155,#1182));
#17 = ADVANCED_FACE('',(#18,#137,#188,#239,#290),#32,.T.);
#18 = FACE_BOUND('',#19,.T.);
#19 = EDGE_LOOP('',(#20,#55,#83,#111));
#20 = ORIENTED_EDGE('',*,*,#21,.T.);
#21 = EDGE_CURVE('',#22,#24,#26,.T.);
#22 = VERTEX_POINT('',#23);
#23 = CARTESIAN_POINT('',(-167.,167.72767420356,86.351240432713));
#24 = VERTEX_POINT('',#25);
#25 = CARTESIAN_POINT('',(-167.,163.13223507264,123.82995494589));
#26 = SURFACE_CURVE('',#27,(#31,#43),.PCURVE_S1.);
#27 = LINE('',#28,#29);
#28 = CARTESIAN_POINT('',(-167.,167.72767420356,86.351240432713));
#29 = VECTOR('',#30,1.);
#30 = DIRECTION('',(0.,-0.121703189952,0.992566538604));
#31 = PCURVE('',#32,#37);
#32 = PLANE('',#33);
#33 = AXIS2_PLACEMENT_3D('',#34,#35,#36);
#34 = CARTESIAN_POINT('',(0.,167.72767420356,86.351240432713));
#35 = DIRECTION('',(-0.,0.992566538604,0.121703189952));
#36 = DIRECTION('',(0.,-0.121703189952,0.992566538604));
#37 = DEFINITIONAL_REPRESENTATION('',(#38),#42);
#38 = LINE('',#39,#40);
#39 = CARTESIAN_POINT('',(0.,-167.));
#40 = VECTOR('',#41,1.);
#41 = DIRECTION('',(1.,0.));
#42 = ( GEOMETRIC_REPRESENTATION_CONTEXT(2) 
PARAMETRIC_REPRESENTATION_CONTEXT() REPRESENTATION_CONTEXT('2D SPACE',''
  ) );
#43 = PCURVE('',#44,#49);
#44 = PLANE('',#45);
#45 = AXIS2_PLACEMENT_3D('',#46,#47,#48);
#46 = CARTESIAN_POINT('',(-167.,155.1748923061,99.812450963306));
#47 = DIRECTION('',(1.,0.,0.));
#48 = DIRECTION('',(0.,1.,0.));
#49 = DEFINITIONAL_REPRESENTATION('',(#50),#54);
#50 = LINE('',#51,#52);
#51 = CARTESIAN_POINT('',(12.552781897454,-13.46121053059));
#52 = VECTOR('',#53,1.);
#53 = DIRECTION('',(-0.121703189952,0.992566538604));
#54 = ( GEOMETRIC_REPRESENTATION_CONTEXT(2) 
PARAMETRIC_REPRESENTATION_CONTEXT() REPRESENTATION_CONTEXT('2D SPACE',''
  ) );
#55 = ORIENTED_EDGE('',*,*,#56,.T.);
#56 = EDGE_CURVE('',#24,#57,#59,.T.);
#57 = VERTEX_POINT('',#58);
#58 = CARTESIAN_POINT('',(167.,163.13223507264,123.82995494589));
#59 = SURFACE_CURVE('',#60,(#64,#71),.PCURVE_S1.);
#60 = LINE('',#61,#62);
#61 = CARTESIAN_POINT('',(-167.,163.13223507264,123.82995494589));
#62 = VECTOR('',#63,1.);
#63 = DIRECTION('',(1.,0.,0.));
#64 = PCURVE('',#32,#65);
#65 = DEFINITIONAL_REPRESENTATION('',(#66),#70);
#66 = LINE('',#67,#68);
#67 = CARTESIAN_POINT('',(37.759397537121,-167.));
#68 = VECTOR('',#69,1.);
#69 = DIRECTION('',(0.,1.));
#70 = ( GEOMETRIC_REPRESENTATION_CONTEXT(2) 
PARAMETRIC_REPRESENTATION_CONTEXT() REPRESENTATION_CONTEXT('2D SPACE',''
  ) );
#71 = PCURVE('',#72,#77);
#72 = PLANE('',#73);
#73 = AXIS2_PLACEMENT_3D('',#74,#75,#76);
#74 = CARTESIAN_POINT('',(0.,163.13223507264,123.82995494589));
#75 = DIRECTION('',(0.,-0.978147600734,0.207911690818));
#76 = DIRECTION('',(0.,-0.207911690818,-0.978147600734));
#77 = DEFINITIONAL_REPRESENTATION('',(#78),#82);
#78 = LINE('',#79,#80);
#79 = CARTESIAN_POINT('',(-0.,-167.));
#80 = VECTOR('',#81,1.);
#81 = DIRECTION('',(0.,1.));
#82 = ( GEOMETRIC_REPRESENTATION_CONTEXT(2) 
PARAMETRIC_REPRESENTATION_CONTEXT() REPRESENTATION_CONTEXT('2D SPACE',''
  ) );
#83 = ORIENTED_EDGE('',*,*,#84,.F.);
#84 = EDGE_CURVE('',#85,#57,#87,.T.);
#85 = VERTEX_POINT('',#86);
#86 = CARTESIAN_POINT('',(167.,167.72767420356,86.351240432713));
#87 = SURFACE_CURVE('',#88,(#92,#99),.PCURVE_S1.);
#88 = LINE('',#89,#90);
#89 = CARTESIAN_POINT('',(167.,167.72767420356,86.351240432713));
#90 = VECTOR('',#91,1.);
#91 = DIRECTION('',(0.,-0.121703189952,0.992566538604));
#92 = PCURVE('',#32,#93);
#93 = DEFINITIONAL_REPRESENTATION('',(#94),#98);
#94 = LINE('',#95,#96);
#95 = CARTESIAN_POINT('',(0.,167.));
#96 = VECTOR('',#97,1.);
#97 = DIRECTION('',(1.,0.));
#98 = ( GEOMETRIC_REPRESENTATION_CONTEXT(2) 
PARAMETRIC_REPRESENTATION_CONTEXT() REPRESENTATION_CONTEXT('2D SPACE',''
  ) );
#99 = PCURVE('',#100,#105);
#100 = PLANE('',#101);
#101 = AXIS2_PLACEMENT_3D('',#102,#103,#104);
#102 = CARTESIAN_POINT('',(167.,155.1748923061,99.812450963306));
#103 = DIRECTION('',(1.,0.,0.));
#104 = DIRECTION('',(0.,1.,0.));
#105 = DEFINITIONAL_REPRESENTATION('',(#106),#110);
#106 = LINE('',#107,#108);
#107 = CARTESIAN_POINT('',(12.552781897454,-13.46121053059));
#108 = VECTOR('',#109,1.);
#109 = DIRECTION('',(-0.121703189952,0.992566538604));
#110 = ( GEOMETRIC_REPRESENTATION_CONTEXT(2) 
PARAMETRIC_REPRESENTATION_CONTEXT() REPRESENTATION_CONTEXT('2D SPACE',''
  ) );
#111 = ORIENTED_EDGE('',*,*,#112,.T.);
#112 = EDGE_CURVE('',#85,#22,#113,.T.);
#113 = SURFACE_CURVE('',#114,(#118,#125),.PCURVE_S1.);
#114 = LINE('',#115,#116);
#115 = CARTESIAN_POINT('',(167.,167.72767420356,86.351240432713));
#116 = VECTOR('',#117,1.);
#117 = DIRECTION('',(-1.,0.,0.));
#118 = PCURVE('',#32,#119);
#119 = DEFINITIONAL_REPRESENTATION('',(#120),#124);
#120 = LINE('',#121,#122);
#121 = CARTESIAN_POINT('',(0.,167.));
#122 = VECTOR('',#123,1.);
#123 = DIRECTION('',(0.,-1.));
#124 = ( GEOMETRIC_REPRESENTATION_CONTEXT(2) 
PARAMETRIC_REPRESENTATION_CONTEXT() REPRESENTATION_CONTEXT('2D SPACE',''
  ) );
#125 = PCURVE('',#126,#131);
#126 = PLANE('',#127);
#127 = AXIS2_PLACEMENT_3D('',#128,#129,#130);
#128 = CARTESIAN_POINT('',(0.,130.66081758434,93.549868269774));
#129 = DIRECTION('',(0.,-0.190644668787,-0.981659111027));
#130 = DIRECTION('',(0.,0.981659111027,-0.190644668787));
#131 = DEFINITIONAL_REPRESENTATION('',(#132),#136);
#132 = LINE('',#133,#134);
#133 = CARTESIAN_POINT('',(37.759397537121,167.));
#134 = VECTOR('',#135,1.);
#135 = DIRECTION('',(0.,-1.));
#136 = ( GEOMETRIC_REPRESENTATION_CONTEXT(2) 
PARAMETRIC_REPRESENTATION_CONTEXT() REPRESENTATION_CONTEXT('2D SPACE',''
  ) );
#137 = FACE_BOUND('',#138,.T.);
#138 = EDGE_LOOP('',(#139));
#139 = ORIENTED_EDGE('',*,*,#140,.F.);
#140 = EDGE_CURVE('',#141,#141,#143,.T.);
#141 = VERTEX_POINT('',#142);
#142 = CARTESIAN_POINT('',(-137.9,164.74108999358,110.70872483985));
#143 = SURFACE_CURVE('',#144,(#149,#156),.PCURVE_S1.);
#144 = ELLIPSE('',#145,2.220875449735,2.1);
#145 = AXIS2_PLACEMENT_3D('',#146,#147,#148);
#146 = CARTESIAN_POINT('',(-140.,164.74108999358,110.70872483985));
#147 = DIRECTION('',(0.,0.992566538604,0.121703189952));
#148 = DIRECTION('',(0.,0.121703189952,-0.992566538604));
#149 = PCURVE('',#32,#150);
#150 = DEFINITIONAL_REPRESENTATION('',(#151),#155);
#151 = ELLIPSE('',#152,2.220875449735,2.1);
#152 = AXIS2_PLACEMENT_2D('',#153,#154);
#153 = CARTESIAN_POINT('',(24.539900812506,-140.));
#154 = DIRECTION('',(-1.,0.));
#155 = ( GEOMETRIC_REPRESENTATION_CONTEXT(2) 
PARAMETRIC_REPRESENTATION_CONTEXT() REPRESENTATION_CONTEXT('2D SPACE',''
  ) );
#156 = PCURVE('',#157,#162);
#157 = CYLINDRICAL_SURFACE('',#158,2.1);
#158 = AXIS2_PLACEMENT_3D('',#159,#160,#161);
#159 = CARTESIAN_POINT('',(-140.,160.04426513705,111.70706578212));
#160 = DIRECTION('',(0.,0.978147600734,-0.207911690818));
#161 = DIRECTION('',(1.,0.,0.));
#162 = DEFINITIONAL_REPRESENTATION('',(#163),#187);
#163 = B_SPLINE_CURVE_WITH_KNOTS('',8,(#164,#165,#166,#167,#168,#169,
    #170,#171,#172,#173,#174,#175,#176,#177,#178,#179,#180,#181,#182,
    #183,#184,#185,#186),.UNSPECIFIED.,.F.,.F.,(9,7,7,9),(4.712388980385
    ,6.28318530718,8.639379797372,10.995574287564),.UNSPECIFIED.);
#164 = CARTESIAN_POINT('',(-1.33226762955E-14,4.8017547178));
#165 = CARTESIAN_POINT('',(0.196349540849,4.9436555085));
#166 = CARTESIAN_POINT('',(0.392699081697,5.085555805313));
#167 = CARTESIAN_POINT('',(0.589048622551,5.219122545936));
#168 = CARTESIAN_POINT('',(0.785398163398,5.336010214739));
#169 = CARTESIAN_POINT('',(0.981747704244,5.428924300375));
#170 = CARTESIAN_POINT('',(1.178097245097,5.492606490565));
#171 = CARTESIAN_POINT('',(1.374446785946,5.524449510391));
#172 = CARTESIAN_POINT('',(1.865320638069,5.524449510391));
#173 = CARTESIAN_POINT('',(2.159844949342,5.452802450337));
#174 = CARTESIAN_POINT('',(2.45436926057,5.309521905978));
#175 = CARTESIAN_POINT('',(2.748893571891,5.107809040328));
#176 = CARTESIAN_POINT('',(3.043417883143,4.874336576671));
#177 = CARTESIAN_POINT('',(3.337942194434,4.642412030707));
#178 = CARTESIAN_POINT('',(3.632466505713,4.44124084627));
#179 = CARTESIAN_POINT('',(4.221515128261,4.140223812192));
#180 = CARTESIAN_POINT('',(4.516039439532,4.040376871762));
#181 = CARTESIAN_POINT('',(4.81056375078,4.011081614944));
#182 = CARTESIAN_POINT('',(5.105088062094,4.06287422137));
#183 = CARTESIAN_POINT('',(5.399612373364,4.191341280493));
#184 = CARTESIAN_POINT('',(5.694136684634,4.376051574389));
#185 = CARTESIAN_POINT('',(5.988660995906,4.588903531751));
#186 = CARTESIAN_POINT('',(6.28318530718,4.8017547178));
#187 = ( GEOMETRIC_REPRESENTATION_CONTEXT(2) 
PARAMETRIC_REPRESENTATION_CONTEXT() REPRESENTATION_CONTEXT('2D SPACE',''
  ) );
#188 = FACE_BOUND('',#189,.T.);
#189 = EDGE_LOOP('',(#190));
#190 = ORIENTED_EDGE('',*,*,#191,.F.);
#191 = EDGE_CURVE('',#192,#192,#194,.T.);
#192 = VERTEX_POINT('',#193);
#193 = CARTESIAN_POINT('',(-57.9,164.74108999358,110.70872483985));
#194 = SURFACE_CURVE('',#195,(#200,#207),.PCURVE_S1.);
#195 = ELLIPSE('',#196,2.220875449735,2.1);
#196 = AXIS2_PLACEMENT_3D('',#197,#198,#199);
#197 = CARTESIAN_POINT('',(-60.,164.74108999358,110.70872483985));
#198 = DIRECTION('',(0.,0.992566538604,0.121703189952));
#199 = DIRECTION('',(0.,0.121703189952,-0.992566538604));
#200 = PCURVE('',#32,#201);
#201 = DEFINITIONAL_REPRESENTATION('',(#202),#206);
#202 = ELLIPSE('',#203,2.220875449735,2.1);
#203 = AXIS2_PLACEMENT_2D('',#204,#205);
#204 = CARTESIAN_POINT('',(24.539900812506,-60.));
#205 = DIRECTION('',(-1.,0.));
#206 = ( GEOMETRIC_REPRESENTATION_CONTEXT(2) 
PARAMETRIC_REPRESENTATION_CONTEXT() REPRESENTATION_CONTEXT('2D SPACE',''
  ) );
#207 = PCURVE('',#208,#213);
#208 = CYLINDRICAL_SURFACE('',#209,2.1);
#209 = AXIS2_PLACEMENT_3D('',#210,#211,#212);
#210 = CARTESIAN_POINT('',(-60.,160.04426513705,111.70706578212));
#211 = DIRECTION('',(0.,0.978147600734,-0.207911690818));
#212 = DIRECTION('',(1.,0.,0.));
#213 = DEFINITIONAL_REPRESENTATION('',(#214),#238);
#214 = B_SPLINE_CURVE_WITH_KNOTS('',8,(#215,#216,#217,#218,#219,#220,
    #221,#222,#223,#224,#225,#226,#227,#228,#229,#230,#231,#232,#233,
    #234,#235,#236,#237),.UNSPECIFIED.,.F.,.F.,(9,7,7,9),(4.712388980385
    ,6.28318530718,8.639379797372,10.995574287564),.UNSPECIFIED.);
#215 = CARTESIAN_POINT('',(-1.33226762955E-14,4.8017547178));
#216 = CARTESIAN_POINT('',(0.196349540849,4.9436555085));
#217 = CARTESIAN_POINT('',(0.392699081697,5.085555805313));
#218 = CARTESIAN_POINT('',(0.589048622551,5.219122545936));
#219 = CARTESIAN_POINT('',(0.785398163398,5.336010214739));
#220 = CARTESIAN_POINT('',(0.981747704244,5.428924300375));
#221 = CARTESIAN_POINT('',(1.178097245097,5.492606490565));
#222 = CARTESIAN_POINT('',(1.374446785946,5.524449510391));
#223 = CARTESIAN_POINT('',(1.865320638069,5.524449510391));
#224 = CARTESIAN_POINT('',(2.15984494934,5.452802450337));
#225 = CARTESIAN_POINT('',(2.454369260581,5.309521905978));
#226 = CARTESIAN_POINT('',(2.748893571898,5.107809040328));
#227 = CARTESIAN_POINT('',(3.043417883135,4.874336576671));
#228 = CARTESIAN_POINT('',(3.337942194436,4.642412030707));
#229 = CARTESIAN_POINT('',(3.632466505713,4.44124084627));
#230 = CARTESIAN_POINT('',(4.221515128261,4.140223812192));
#231 = CARTESIAN_POINT('',(4.51603943953,4.040376871762));
#232 = CARTESIAN_POINT('',(4.810563750788,4.011081614944));
#233 = CARTESIAN_POINT('',(5.10508806205,4.06287422137));
#234 = CARTESIAN_POINT('',(5.399612373378,4.191341280493));
#235 = CARTESIAN_POINT('',(5.69413668463,4.376051574389));
#236 = CARTESIAN_POINT('',(5.988660995906,4.588903531751));
#237 = CARTESIAN_POINT('',(6.28318530718,4.8017547178));
#238 = ( GEOMETRIC_REPRESENTATION_CONTEXT(2) 
PARAMETRIC_REPRESENTATION_CONTEXT() REPRESENTATION_CONTEXT('2D SPACE',''
  ) );
#239 = FACE_BOUND('',#240,.T.);
#240 = EDGE_LOOP('',(#241));
#241 = ORIENTED_EDGE('',*,*,#242,.F.);
#242 = EDGE_CURVE('',#243,#243,#245,.T.);
#243 = VERTEX_POINT('',#244);
#244 = CARTESIAN_POINT('',(62.1,164.74108999358,110.70872483985));
#245 = SURFACE_CURVE('',#246,(#251,#258),.PCURVE_S1.);
#246 = ELLIPSE('',#247,2.220875449735,2.1);
#247 = AXIS2_PLACEMENT_3D('',#248,#249,#250);
#248 = CARTESIAN_POINT('',(60.,164.74108999358,110.70872483985));
#249 = DIRECTION('',(0.,0.992566538604,0.121703189952));
#250 = DIRECTION('',(0.,0.121703189952,-0.992566538604));
#251 = PCURVE('',#32,#252);
#252 = DEFINITIONAL_REPRESENTATION('',(#253),#257);
#253 = ELLIPSE('',#254,2.220875449735,2.1);
#254 = AXIS2_PLACEMENT_2D('',#255,#256);
#255 = CARTESIAN_POINT('',(24.539900812506,60.));
#256 = DIRECTION('',(-1.,0.));
#257 = ( GEOMETRIC_REPRESENTATION_CONTEXT(2) 
PARAMETRIC_REPRESENTATION_CONTEXT() REPRESENTATION_CONTEXT('2D SPACE',''
  ) );
#258 = PCURVE('',#259,#264);
#259 = CYLINDRICAL_SURFACE('',#260,2.1);
#260 = AXIS2_PLACEMENT_3D('',#261,#262,#263);
#261 = CARTESIAN_POINT('',(60.,160.04426513705,111.70706578212));
#262 = DIRECTION('',(0.,0.978147600734,-0.207911690818));
#263 = DIRECTION('',(1.,0.,0.));
#264 = DEFINITIONAL_REPRESENTATION('',(#265),#289);
#265 = B_SPLINE_CURVE_WITH_KNOTS('',8,(#266,#267,#268,#269,#270,#271,
    #272,#273,#274,#275,#276,#277,#278,#279,#280,#281,#282,#283,#284,
    #285,#286,#287,#288),.UNSPECIFIED.,.F.,.F.,(9,7,7,9),(4.712388980385
    ,6.28318530718,8.639379797372,10.995574287564),.UNSPECIFIED.);
#266 = CARTESIAN_POINT('',(-1.33226762955E-14,4.8017547178));
#267 = CARTESIAN_POINT('',(0.196349540849,4.9436555085));
#268 = CARTESIAN_POINT('',(0.392699081697,5.085555805313));
#269 = CARTESIAN_POINT('',(0.589048622551,5.219122545936));
#270 = CARTESIAN_POINT('',(0.785398163398,5.336010214739));
#271 = CARTESIAN_POINT('',(0.981747704244,5.428924300375));
#272 = CARTESIAN_POINT('',(1.178097245097,5.492606490565));
#273 = CARTESIAN_POINT('',(1.374446785946,5.524449510391));
#274 = CARTESIAN_POINT('',(1.865320638069,5.524449510391));
#275 = CARTESIAN_POINT('',(2.15984494934,5.452802450337));
#276 = CARTESIAN_POINT('',(2.454369260581,5.309521905978));
#277 = CARTESIAN_POINT('',(2.748893571898,5.107809040328));
#278 = CARTESIAN_POINT('',(3.043417883135,4.874336576671));
#279 = CARTESIAN_POINT('',(3.337942194436,4.642412030707));
#280 = CARTESIAN_POINT('',(3.632466505713,4.44124084627));
#281 = CARTESIAN_POINT('',(4.221515128261,4.140223812192));
#282 = CARTESIAN_POINT('',(4.51603943953,4.040376871762));
#283 = CARTESIAN_POINT('',(4.810563750788,4.011081614944));
#284 = CARTESIAN_POINT('',(5.10508806205,4.06287422137));
#285 = CARTESIAN_POINT('',(5.399612373378,4.191341280493));
#286 = CARTESIAN_POINT('',(5.69413668463,4.376051574389));
#287 = CARTESIAN_POINT('',(5.988660995906,4.588903531751));
#288 = CARTESIAN_POINT('',(6.28318530718,4.8017547178));
#289 = ( GEOMETRIC_REPRESENTATION_CONTEXT(2) 
PARAMETRIC_REPRESENTATION_CONTEXT() REPRESENTATION_CONTEXT('2D SPACE',''
  ) );
#290 = FACE_BOUND('',#291,.T.);
#291 = EDGE_LOOP('',(#292));
#292 = ORIENTED_EDGE('',*,*,#293,.F.);
#293 = EDGE_CURVE('',#294,#294,#296,.T.);
#294 = VERTEX_POINT('',#295);
#295 = CARTESIAN_POINT('',(142.1,164.74108999358,110.70872483985));
#296 = SURFACE_CURVE('',#297,(#302,#309),.PCURVE_S1.);
#297 = ELLIPSE('',#298,2.220875449735,2.1);
#298 = AXIS2_PLACEMENT_3D('',#299,#300,#301);
#299 = CARTESIAN_POINT('',(140.,164.74108999358,110.70872483985));
#300 = DIRECTION('',(0.,0.992566538604,0.121703189952));
#301 = DIRECTION('',(0.,0.121703189952,-0.992566538604));
#302 = PCURVE('',#32,#303);
#303 = DEFINITIONAL_REPRESENTATION('',(#304),#308);
#304 = ELLIPSE('',#305,2.220875449735,2.1);
#305 = AXIS2_PLACEMENT_2D('',#306,#307);
#306 = CARTESIAN_POINT('',(24.539900812506,140.));
#307 = DIRECTION('',(-1.,0.));
#308 = ( GEOMETRIC_REPRESENTATION_CONTEXT(2) 
PARAMETRIC_REPRESENTATION_CONTEXT() REPRESENTATION_CONTEXT('2D SPACE',''
  ) );
#309 = PCURVE('',#310,#315);
#310 = CYLINDRICAL_SURFACE('',#311,2.1);
#311 = AXIS2_PLACEMENT_3D('',#312,#313,#314);
#312 = CARTESIAN_POINT('',(140.,160.04426513705,111.70706578212));
#313 = DIRECTION('',(0.,0.978147600734,-0.207911690818));
#314 = DIRECTION('',(1.,0.,0.));
#315 = DEFINITIONAL_REPRESENTATION('',(#316),#340);
#316 = B_SPLINE_CURVE_WITH_KNOTS('',8,(#317,#318,#319,#320,#321,#322,
    #323,#324,#325,#326,#327,#328,#329,#330,#331,#332,#333,#334,#335,
    #336,#337,#338,#339),.UNSPECIFIED.,.F.,.F.,(9,7,7,9),(4.712388980385
    ,6.28318530718,8.639379797372,10.995574287564),.UNSPECIFIED.);
#317 = CARTESIAN_POINT('',(-1.33226762955E-14,4.8017547178));
#318 = CARTESIAN_POINT('',(0.196349540849,4.9436555085));
#319 = CARTESIAN_POINT('',(0.392699081697,5.085555805313));
#320 = CARTESIAN_POINT('',(0.589048622551,5.219122545936));
#321 = CARTESIAN_POINT('',(0.785398163398,5.336010214739));
#322 = CARTESIAN_POINT('',(0.981747704244,5.428924300375));
#323 = CARTESIAN_POINT('',(1.178097245097,5.492606490565));
#324 = CARTESIAN_POINT('',(1.374446785946,5.524449510391));
#325 = CARTESIAN_POINT('',(1.865320638069,5.524449510391));
#326 = CARTESIAN_POINT('',(2.159844949342,5.452802450337));
#327 = CARTESIAN_POINT('',(2.45436926057,5.309521905978));
#328 = CARTESIAN_POINT('',(2.748893571891,5.107809040328));
#329 = CARTESIAN_POINT('',(3.043417883143,4.874336576671));
#330 = CARTESIAN_POINT('',(3.337942194434,4.642412030707));
#331 = CARTESIAN_POINT('',(3.632466505713,4.44124084627));
#332 = CARTESIAN_POINT('',(4.221515128261,4.140223812192));
#333 = CARTESIAN_POINT('',(4.516039439532,4.040376871762));
#334 = CARTESIAN_POINT('',(4.81056375078,4.011081614944));
#335 = CARTESIAN_POINT('',(5.105088062094,4.06287422137));
#336 = CARTESIAN_POINT('',(5.399612373364,4.191341280493));
#337 = CARTESIAN_POINT('',(5.694136684634,4.376051574389));
#338 = CARTESIAN_POINT('',(5.988660995906,4.588903531751));
#339 = CARTESIAN_POINT('',(6.28318530718,4.8017547178));
#340 = ( GEOMETRIC_REPRESENTATION_CONTEXT(2) 
PARAMETRIC_REPRESENTATION_CONTEXT() REPRESENTATION_CONTEXT('2D SPACE',''
  ) );
#341 = ADVANCED_FACE('',(#342),#44,.F.);
#342 = FACE_BOUND('',#343,.F.);
#343 = EDGE_LOOP('',(#344,#345,#368,#396));
#344 = ORIENTED_EDGE('',*,*,#21,.T.);
#345 = ORIENTED_EDGE('',*,*,#346,.T.);
#346 = EDGE_CURVE('',#24,#347,#349,.T.);
#347 = VERTEX_POINT('',#348);
#348 = CARTESIAN_POINT('',(-167.,157.49769880262,97.321545957));
#349 = SURFACE_CURVE('',#350,(#354,#361),.PCURVE_S1.);
#350 = LINE('',#351,#352);
#351 = CARTESIAN_POINT('',(-167.,163.13223507264,123.82995494589));
#352 = VECTOR('',#353,1.);
#353 = DIRECTION('',(0.,-0.207911690818,-0.978147600734));
#354 = PCURVE('',#44,#355);
#355 = DEFINITIONAL_REPRESENTATION('',(#356),#360);
#356 = LINE('',#357,#358);
#357 = CARTESIAN_POINT('',(7.957342766538,24.017503982586));
#358 = VECTOR('',#359,1.);
#359 = DIRECTION('',(-0.207911690818,-0.978147600734));
#360 = ( GEOMETRIC_REPRESENTATION_CONTEXT(2) 
PARAMETRIC_REPRESENTATION_CONTEXT() REPRESENTATION_CONTEXT('2D SPACE',''
  ) );
#361 = PCURVE('',#72,#362);
#362 = DEFINITIONAL_REPRESENTATION('',(#363),#367);
#363 = LINE('',#364,#365);
#364 = CARTESIAN_POINT('',(-0.,-167.));
#365 = VECTOR('',#366,1.);
#366 = DIRECTION('',(1.,0.));
#367 = ( GEOMETRIC_REPRESENTATION_CONTEXT(2) 
PARAMETRIC_REPRESENTATION_CONTEXT() REPRESENTATION_CONTEXT('2D SPACE',''
  ) );
#368 = ORIENTED_EDGE('',*,*,#369,.T.);
#369 = EDGE_CURVE('',#347,#370,#372,.T.);
#370 = VERTEX_POINT('',#371);
#371 = CARTESIAN_POINT('',(-167.,130.66081758434,93.549868269774));
#372 = SURFACE_CURVE('',#373,(#377,#384),.PCURVE_S1.);
#373 = LINE('',#374,#375);
#374 = CARTESIAN_POINT('',(-167.,157.49769880262,97.321545957));
#375 = VECTOR('',#376,1.);
#376 = DIRECTION('',(0.,-0.990268068742,-0.13917310096));
#377 = PCURVE('',#44,#378);
#378 = DEFINITIONAL_REPRESENTATION('',(#379),#383);
#379 = LINE('',#380,#381);
#380 = CARTESIAN_POINT('',(2.322806496516,-2.490905006306));
#381 = VECTOR('',#382,1.);
#382 = DIRECTION('',(-0.990268068742,-0.13917310096));
#383 = ( GEOMETRIC_REPRESENTATION_CONTEXT(2) 
PARAMETRIC_REPRESENTATION_CONTEXT() REPRESENTATION_CONTEXT('2D SPACE',''
  ) );
#384 = PCURVE('',#385,#390);
#385 = PLANE('',#386);
#386 = AXIS2_PLACEMENT_3D('',#387,#388,#389);
#387 = CARTESIAN_POINT('',(0.,157.49769880262,97.321545957));
#388 = DIRECTION('',(0.,-0.13917310096,0.990268068742));
#389 = DIRECTION('',(0.,-0.990268068742,-0.13917310096));
#390 = DEFINITIONAL_REPRESENTATION('',(#391),#395);
#391 = LINE('',#392,#393);
#392 = CARTESIAN_POINT('',(-0.,-167.));
#393 = VECTOR('',#394,1.);
#394 = DIRECTION('',(1.,0.));
#395 = ( GEOMETRIC_REPRESENTATION_CONTEXT(2) 
PARAMETRIC_REPRESENTATION_CONTEXT() REPRESENTATION_CONTEXT('2D SPACE',''
  ) );
#396 = ORIENTED_EDGE('',*,*,#397,.T.);
#397 = EDGE_CURVE('',#370,#22,#398,.T.);
#398 = SURFACE_CURVE('',#399,(#403,#410),.PCURVE_S1.);
#399 = LINE('',#400,#401);
#400 = CARTESIAN_POINT('',(-167.,130.66081758434,93.549868269774));
#401 = VECTOR('',#402,1.);
#402 = DIRECTION('',(0.,0.981659111027,-0.190644668787));
#403 = PCURVE('',#44,#404);
#404 = DEFINITIONAL_REPRESENTATION('',(#405),#409);
#405 = LINE('',#406,#407);
#406 = CARTESIAN_POINT('',(-24.51407472176,-6.262582693533));
#407 = VECTOR('',#408,1.);
#408 = DIRECTION('',(0.981659111027,-0.190644668787));
#409 = ( GEOMETRIC_REPRESENTATION_CONTEXT(2) 
PARAMETRIC_REPRESENTATION_CONTEXT() REPRESENTATION_CONTEXT('2D SPACE',''
  ) );
#410 = PCURVE('',#126,#411);
#411 = DEFINITIONAL_REPRESENTATION('',(#412),#416);
#412 = LINE('',#413,#414);
#413 = CARTESIAN_POINT('',(0.,-167.));
#414 = VECTOR('',#415,1.);
#415 = DIRECTION('',(1.,0.));
#416 = ( GEOMETRIC_REPRESENTATION_CONTEXT(2) 
PARAMETRIC_REPRESENTATION_CONTEXT() REPRESENTATION_CONTEXT('2D SPACE',''
  ) );
#417 = ADVANCED_FACE('',(#418,#466,#517,#568,#619),#126,.T.);
#418 = FACE_BOUND('',#419,.T.);
#419 = EDGE_LOOP('',(#420,#421,#422,#445));
#420 = ORIENTED_EDGE('',*,*,#397,.T.);
#421 = ORIENTED_EDGE('',*,*,#112,.F.);
#422 = ORIENTED_EDGE('',*,*,#423,.F.);
#423 = EDGE_CURVE('',#424,#85,#426,.T.);
#424 = VERTEX_POINT('',#425);
#425 = CARTESIAN_POINT('',(167.,130.66081758434,93.549868269774));
#426 = SURFACE_CURVE('',#427,(#431,#438),.PCURVE_S1.);
#427 = LINE('',#428,#429);
#428 = CARTESIAN_POINT('',(167.,130.66081758434,93.549868269774));
#429 = VECTOR('',#430,1.);
#430 = DIRECTION('',(0.,0.981659111027,-0.190644668787));
#431 = PCURVE('',#126,#432);
#432 = DEFINITIONAL_REPRESENTATION('',(#433),#437);
#433 = LINE('',#434,#435);
#434 = CARTESIAN_POINT('',(0.,167.));
#435 = VECTOR('',#436,1.);
#436 = DIRECTION('',(1.,0.));
#437 = ( GEOMETRIC_REPRESENTATION_CONTEXT(2) 
PARAMETRIC_REPRESENTATION_CONTEXT() REPRESENTATION_CONTEXT('2D SPACE',''
  ) );
#438 = PCURVE('',#100,#439);
#439 = DEFINITIONAL_REPRESENTATION('',(#440),#444);
#440 = LINE('',#441,#442);
#441 = CARTESIAN_POINT('',(-24.51407472176,-6.262582693533));
#442 = VECTOR('',#443,1.);
#443 = DIRECTION('',(0.981659111027,-0.190644668787));
#444 = ( GEOMETRIC_REPRESENTATION_CONTEXT(2) 
PARAMETRIC_REPRESENTATION_CONTEXT() REPRESENTATION_CONTEXT('2D SPACE',''
  ) );
#445 = ORIENTED_EDGE('',*,*,#446,.T.);
#446 = EDGE_CURVE('',#424,#370,#447,.T.);
#447 = SURFACE_CURVE('',#448,(#452,#459),.PCURVE_S1.);
#448 = LINE('',#449,#450);
#449 = CARTESIAN_POINT('',(167.,130.66081758434,93.549868269774));
#450 = VECTOR('',#451,1.);
#451 = DIRECTION('',(-1.,0.,0.));
#452 = PCURVE('',#126,#453);
#453 = DEFINITIONAL_REPRESENTATION('',(#454),#458);
#454 = LINE('',#455,#456);
#455 = CARTESIAN_POINT('',(0.,167.));
#456 = VECTOR('',#457,1.);
#457 = DIRECTION('',(0.,-1.));
#458 = ( GEOMETRIC_REPRESENTATION_CONTEXT(2) 
PARAMETRIC_REPRESENTATION_CONTEXT() REPRESENTATION_CONTEXT('2D SPACE',''
  ) );
#459 = PCURVE('',#385,#460);
#460 = DEFINITIONAL_REPRESENTATION('',(#461),#465);
#461 = LINE('',#462,#463);
#462 = CARTESIAN_POINT('',(27.100622614629,167.));
#463 = VECTOR('',#464,1.);
#464 = DIRECTION('',(-0.,-1.));
#465 = ( GEOMETRIC_REPRESENTATION_CONTEXT(2) 
PARAMETRIC_REPRESENTATION_CONTEXT() REPRESENTATION_CONTEXT('2D SPACE',''
  ) );
#466 = FACE_BOUND('',#467,.T.);
#467 = EDGE_LOOP('',(#468));
#468 = ORIENTED_EDGE('',*,*,#469,.F.);
#469 = EDGE_CURVE('',#470,#470,#472,.T.);
#470 = VERTEX_POINT('',#471);
#471 = CARTESIAN_POINT('',(-137.9,143.63785698725,91.029641695179));
#472 = SURFACE_CURVE('',#473,(#478,#485),.PCURVE_S1.);
#473 = ELLIPSE('',#474,2.220875449735,2.1);
#474 = AXIS2_PLACEMENT_3D('',#475,#476,#477);
#475 = CARTESIAN_POINT('',(-140.,143.63785698725,91.029641695179));
#476 = DIRECTION('',(0.,-0.190644668787,-0.981659111027));
#477 = DIRECTION('',(0.,0.981659111027,-0.190644668787));
#478 = PCURVE('',#126,#479);
#479 = DEFINITIONAL_REPRESENTATION('',(#480),#484);
#480 = ELLIPSE('',#481,2.220875449735,2.1);
#481 = AXIS2_PLACEMENT_2D('',#482,#483);
#482 = CARTESIAN_POINT('',(13.219496724615,-140.));
#483 = DIRECTION('',(1.,0.));
#484 = ( GEOMETRIC_REPRESENTATION_CONTEXT(2) 
PARAMETRIC_REPRESENTATION_CONTEXT() REPRESENTATION_CONTEXT('2D SPACE',''
  ) );
#485 = PCURVE('',#486,#491);
#486 = CYLINDRICAL_SURFACE('',#487,2.1);
#487 = AXIS2_PLACEMENT_3D('',#488,#489,#490);
#488 = CARTESIAN_POINT('',(-140.,142.96958189313,95.784666066145));
#489 = DIRECTION('',(0.,0.13917310096,-0.990268068742));
#490 = DIRECTION('',(1.,0.,0.));
#491 = DEFINITIONAL_REPRESENTATION('',(#492),#516);
#492 = B_SPLINE_CURVE_WITH_KNOTS('',8,(#493,#494,#495,#496,#497,#498,
    #499,#500,#501,#502,#503,#504,#505,#506,#507,#508,#509,#510,#511,
    #512,#513,#514,#515),.UNSPECIFIED.,.F.,.F.,(9,7,7,9),(1.570796326795
    ,3.14159265359,5.497787143782,7.853981633974),.UNSPECIFIED.);
#493 = CARTESIAN_POINT('',(0.,4.8017547178));
#494 = CARTESIAN_POINT('',(0.196349540849,4.659853927101));
#495 = CARTESIAN_POINT('',(0.392699081699,4.517953630288));
#496 = CARTESIAN_POINT('',(0.589048622548,4.384386889664));
#497 = CARTESIAN_POINT('',(0.785398163398,4.267499220862));
#498 = CARTESIAN_POINT('',(0.981747704247,4.174585135227));
#499 = CARTESIAN_POINT('',(1.178097245096,4.110902945034));
#500 = CARTESIAN_POINT('',(1.374446785946,4.07905992521));
#501 = CARTESIAN_POINT('',(1.865320638069,4.07905992521));
#502 = CARTESIAN_POINT('',(2.159844949339,4.150706985256));
#503 = CARTESIAN_POINT('',(2.454369260615,4.293987529651));
#504 = CARTESIAN_POINT('',(2.748893571879,4.4957003952));
#505 = CARTESIAN_POINT('',(3.043417883164,4.729172858946));
#506 = CARTESIAN_POINT('',(3.337942194436,4.961097404886));
#507 = CARTESIAN_POINT('',(3.632466505713,5.16226858933));
#508 = CARTESIAN_POINT('',(4.221515128261,5.463285623408));
#509 = CARTESIAN_POINT('',(4.516039439534,5.563132563831));
#510 = CARTESIAN_POINT('',(4.810563750803,5.592427820666));
#511 = CARTESIAN_POINT('',(5.105088062086,5.540635214202));
#512 = CARTESIAN_POINT('',(5.399612373345,5.412168155133));
#513 = CARTESIAN_POINT('',(5.694136684631,5.227457861205));
#514 = CARTESIAN_POINT('',(5.988660995906,5.014605903849));
#515 = CARTESIAN_POINT('',(6.28318530718,4.8017547178));
#516 = ( GEOMETRIC_REPRESENTATION_CONTEXT(2) 
PARAMETRIC_REPRESENTATION_CONTEXT() REPRESENTATION_CONTEXT('2D SPACE',''
  ) );
#517 = FACE_BOUND('',#518,.T.);
#518 = EDGE_LOOP('',(#519));
#519 = ORIENTED_EDGE('',*,*,#520,.F.);
#520 = EDGE_CURVE('',#521,#521,#523,.T.);
#521 = VERTEX_POINT('',#522);
#522 = CARTESIAN_POINT('',(-57.9,143.63785698725,91.029641695179));
#523 = SURFACE_CURVE('',#524,(#529,#536),.PCURVE_S1.);
#524 = ELLIPSE('',#525,2.220875449735,2.1);
#525 = AXIS2_PLACEMENT_3D('',#526,#527,#528);
#526 = CARTESIAN_POINT('',(-60.,143.63785698725,91.029641695179));
#527 = DIRECTION('',(0.,-0.190644668787,-0.981659111027));
#528 = DIRECTION('',(0.,0.981659111027,-0.190644668787));
#529 = PCURVE('',#126,#530);
#530 = DEFINITIONAL_REPRESENTATION('',(#531),#535);
#531 = ELLIPSE('',#532,2.220875449735,2.1);
#532 = AXIS2_PLACEMENT_2D('',#533,#534);
#533 = CARTESIAN_POINT('',(13.219496724615,-60.));
#534 = DIRECTION('',(1.,0.));
#535 = ( GEOMETRIC_REPRESENTATION_CONTEXT(2) 
PARAMETRIC_REPRESENTATION_CONTEXT() REPRESENTATION_CONTEXT('2D SPACE',''
  ) );
#536 = PCURVE('',#537,#542);
#537 = CYLINDRICAL_SURFACE('',#538,2.1);
#538 = AXIS2_PLACEMENT_3D('',#539,#540,#541);
#539 = CARTESIAN_POINT('',(-60.,142.96958189313,95.784666066145));
#540 = DIRECTION('',(0.,0.13917310096,-0.990268068742));
#541 = DIRECTION('',(1.,0.,0.));
#542 = DEFINITIONAL_REPRESENTATION('',(#543),#567);
#543 = B_SPLINE_CURVE_WITH_KNOTS('',8,(#544,#545,#546,#547,#548,#549,
    #550,#551,#552,#553,#554,#555,#556,#557,#558,#559,#560,#561,#562,
    #563,#564,#565,#566),.UNSPECIFIED.,.F.,.F.,(9,7,7,9),(1.570796326795
    ,3.14159265359,5.497787143782,7.853981633974),.UNSPECIFIED.);
#544 = CARTESIAN_POINT('',(0.,4.8017547178));
#545 = CARTESIAN_POINT('',(0.196349540849,4.659853927101));
#546 = CARTESIAN_POINT('',(0.392699081699,4.517953630288));
#547 = CARTESIAN_POINT('',(0.589048622548,4.384386889664));
#548 = CARTESIAN_POINT('',(0.785398163398,4.267499220862));
#549 = CARTESIAN_POINT('',(0.981747704247,4.174585135227));
#550 = CARTESIAN_POINT('',(1.178097245096,4.110902945034));
#551 = CARTESIAN_POINT('',(1.374446785946,4.07905992521));
#552 = CARTESIAN_POINT('',(1.865320638069,4.07905992521));
#553 = CARTESIAN_POINT('',(2.159844949338,4.150706985256));
#554 = CARTESIAN_POINT('',(2.45436926062,4.293987529651));
#555 = CARTESIAN_POINT('',(2.748893571867,4.4957003952));
#556 = CARTESIAN_POINT('',(3.043417883173,4.729172858946));
#557 = CARTESIAN_POINT('',(3.337942194435,4.961097404886));
#558 = CARTESIAN_POINT('',(3.632466505713,5.16226858933));
#559 = CARTESIAN_POINT('',(4.221515128261,5.463285623408));
#560 = CARTESIAN_POINT('',(4.516039439533,5.563132563831));
#561 = CARTESIAN_POINT('',(4.810563750822,5.592427820666));
#562 = CARTESIAN_POINT('',(5.105088062053,5.540635214202));
#563 = CARTESIAN_POINT('',(5.399612373378,5.412168155133));
#564 = CARTESIAN_POINT('',(5.694136684627,5.227457861205));
#565 = CARTESIAN_POINT('',(5.988660995906,5.014605903849));
#566 = CARTESIAN_POINT('',(6.28318530718,4.8017547178));
#567 = ( GEOMETRIC_REPRESENTATION_CONTEXT(2) 
PARAMETRIC_REPRESENTATION_CONTEXT() REPRESENTATION_CONTEXT('2D SPACE',''
  ) );
#568 = FACE_BOUND('',#569,.T.);
#569 = EDGE_LOOP('',(#570));
#570 = ORIENTED_EDGE('',*,*,#571,.F.);
#571 = EDGE_CURVE('',#572,#572,#574,.T.);
#572 = VERTEX_POINT('',#573);
#573 = CARTESIAN_POINT('',(62.1,143.63785698725,91.029641695179));
#574 = SURFACE_CURVE('',#575,(#580,#587),.PCURVE_S1.);
#575 = ELLIPSE('',#576,2.220875449735,2.1);
#576 = AXIS2_PLACEMENT_3D('',#577,#578,#579);
#577 = CARTESIAN_POINT('',(60.,143.63785698725,91.029641695179));
#578 = DIRECTION('',(0.,-0.190644668787,-0.981659111027));
#579 = DIRECTION('',(0.,0.981659111027,-0.190644668787));
#580 = PCURVE('',#126,#581);
#581 = DEFINITIONAL_REPRESENTATION('',(#582),#586);
#582 = ELLIPSE('',#583,2.220875449735,2.1);
#583 = AXIS2_PLACEMENT_2D('',#584,#585);
#584 = CARTESIAN_POINT('',(13.219496724615,60.));
#585 = DIRECTION('',(1.,0.));
#586 = ( GEOMETRIC_REPRESENTATION_CONTEXT(2) 
PARAMETRIC_REPRESENTATION_CONTEXT() REPRESENTATION_CONTEXT('2D SPACE',''
  ) );
#587 = PCURVE('',#588,#593);
#588 = CYLINDRICAL_SURFACE('',#589,2.1);
#589 = AXIS2_PLACEMENT_3D('',#590,#591,#592);
#590 = CARTESIAN_POINT('',(60.,142.96958189313,95.784666066145));
#591 = DIRECTION('',(0.,0.13917310096,-0.990268068742));
#592 = DIRECTION('',(1.,0.,0.));
#593 = DEFINITIONAL_REPRESENTATION('',(#594),#618);
#594 = B_SPLINE_CURVE_WITH_KNOTS('',8,(#595,#596,#597,#598,#599,#600,
    #601,#602,#603,#604,#605,#606,#607,#608,#609,#610,#611,#612,#613,
    #614,#615,#616,#617),.UNSPECIFIED.,.F.,.F.,(9,7,7,9),(1.570796326795
    ,3.14159265359,5.497787143782,7.853981633974),.UNSPECIFIED.);
#595 = CARTESIAN_POINT('',(0.,4.8017547178));
#596 = CARTESIAN_POINT('',(0.196349540849,4.659853927101));
#597 = CARTESIAN_POINT('',(0.392699081699,4.517953630288));
#598 = CARTESIAN_POINT('',(0.589048622548,4.384386889664));
#599 = CARTESIAN_POINT('',(0.785398163398,4.267499220862));
#600 = CARTESIAN_POINT('',(0.981747704247,4.174585135227));
#601 = CARTESIAN_POINT('',(1.178097245096,4.110902945034));
#602 = CARTESIAN_POINT('',(1.374446785946,4.07905992521));
#603 = CARTESIAN_POINT('',(1.865320638069,4.07905992521));
#604 = CARTESIAN_POINT('',(2.159844949338,4.150706985256));
#605 = CARTESIAN_POINT('',(2.45436926062,4.293987529651));
#606 = CARTESIAN_POINT('',(2.748893571867,4.4957003952));
#607 = CARTESIAN_POINT('',(3.043417883173,4.729172858946));
#608 = CARTESIAN_POINT('',(3.337942194435,4.961097404886));
#609 = CARTESIAN_POINT('',(3.632466505713,5.16226858933));
#610 = CARTESIAN_POINT('',(4.221515128261,5.463285623408));
#611 = CARTESIAN_POINT('',(4.516039439533,5.563132563831));
#612 = CARTESIAN_POINT('',(4.810563750822,5.592427820666));
#613 = CARTESIAN_POINT('',(5.105088062053,5.540635214202));
#614 = CARTESIAN_POINT('',(5.399612373378,5.412168155133));
#615 = CARTESIAN_POINT('',(5.694136684627,5.227457861205));
#616 = CARTESIAN_POINT('',(5.988660995906,5.014605903849));
#617 = CARTESIAN_POINT('',(6.28318530718,4.8017547178));
#618 = ( GEOMETRIC_REPRESENTATION_CONTEXT(2) 
PARAMETRIC_REPRESENTATION_CONTEXT() REPRESENTATION_CONTEXT('2D SPACE',''
  ) );
#619 = FACE_BOUND('',#620,.T.);
#620 = EDGE_LOOP('',(#621));
#621 = ORIENTED_EDGE('',*,*,#622,.F.);
#622 = EDGE_CURVE('',#623,#623,#625,.T.);
#623 = VERTEX_POINT('',#624);
#624 = CARTESIAN_POINT('',(142.1,143.63785698725,91.029641695179));
#625 = SURFACE_CURVE('',#626,(#631,#638),.PCURVE_S1.);
#626 = ELLIPSE('',#627,2.220875449735,2.1);
#627 = AXIS2_PLACEMENT_3D('',#628,#629,#630);
#628 = CARTESIAN_POINT('',(140.,143.63785698725,91.029641695179));
#629 = DIRECTION('',(0.,-0.190644668787,-0.981659111027));
#630 = DIRECTION('',(0.,0.981659111027,-0.190644668787));
#631 = PCURVE('',#126,#632);
#632 = DEFINITIONAL_REPRESENTATION('',(#633),#637);
#633 = ELLIPSE('',#634,2.220875449735,2.1);
#634 = AXIS2_PLACEMENT_2D('',#635,#636);
#635 = CARTESIAN_POINT('',(13.219496724615,140.));
#636 = DIRECTION('',(1.,0.));
#637 = ( GEOMETRIC_REPRESENTATION_CONTEXT(2) 
PARAMETRIC_REPRESENTATION_CONTEXT() REPRESENTATION_CONTEXT('2D SPACE',''
  ) );
#638 = PCURVE('',#639,#644);
#639 = CYLINDRICAL_SURFACE('',#640,2.1);
#640 = AXIS2_PLACEMENT_3D('',#641,#642,#643);
#641 = CARTESIAN_POINT('',(140.,142.96958189313,95.784666066145));
#642 = DIRECTION('',(0.,0.13917310096,-0.990268068742));
#643 = DIRECTION('',(1.,0.,0.));
#644 = DEFINITIONAL_REPRESENTATION('',(#645),#669);
#645 = B_SPLINE_CURVE_WITH_KNOTS('',8,(#646,#647,#648,#649,#650,#651,
    #652,#653,#654,#655,#656,#657,#658,#659,#660,#661,#662,#663,#664,
    #665,#666,#667,#668),.UNSPECIFIED.,.F.,.F.,(9,7,7,9),(1.570796326795
    ,3.14159265359,5.497787143782,7.853981633974),.UNSPECIFIED.);
#646 = CARTESIAN_POINT('',(0.,4.8017547178));
#647 = CARTESIAN_POINT('',(0.196349540849,4.659853927101));
#648 = CARTESIAN_POINT('',(0.392699081699,4.517953630288));
#649 = CARTESIAN_POINT('',(0.589048622548,4.384386889664));
#650 = CARTESIAN_POINT('',(0.785398163398,4.267499220862));
#651 = CARTESIAN_POINT('',(0.981747704247,4.174585135227));
#652 = CARTESIAN_POINT('',(1.178097245096,4.110902945034));
#653 = CARTESIAN_POINT('',(1.374446785946,4.07905992521));
#654 = CARTESIAN_POINT('',(1.865320638069,4.07905992521));
#655 = CARTESIAN_POINT('',(2.159844949339,4.150706985256));
#656 = CARTESIAN_POINT('',(2.454369260615,4.293987529651));
#657 = CARTESIAN_POINT('',(2.748893571879,4.4957003952));
#658 = CARTESIAN_POINT('',(3.043417883164,4.729172858946));
#659 = CARTESIAN_POINT('',(3.337942194436,4.961097404886));
#660 = CARTESIAN_POINT('',(3.632466505713,5.16226858933));
#661 = CARTESIAN_POINT('',(4.221515128261,5.463285623408));
#662 = CARTESIAN_POINT('',(4.516039439534,5.563132563831));
#663 = CARTESIAN_POINT('',(4.810563750803,5.592427820666));
#664 = CARTESIAN_POINT('',(5.105088062086,5.540635214202));
#665 = CARTESIAN_POINT('',(5.399612373345,5.412168155133));
#666 = CARTESIAN_POINT('',(5.694136684631,5.227457861205));
#667 = CARTESIAN_POINT('',(5.988660995906,5.014605903849));
#668 = CARTESIAN_POINT('',(6.28318530718,4.8017547178));
#669 = ( GEOMETRIC_REPRESENTATION_CONTEXT(2) 
PARAMETRIC_REPRESENTATION_CONTEXT() REPRESENTATION_CONTEXT('2D SPACE',''
  ) );
#670 = ADVANCED_FACE('',(#671,#719,#749,#779,#809),#72,.T.);
#671 = FACE_BOUND('',#672,.T.);
#672 = EDGE_LOOP('',(#673,#674,#675,#698));
#673 = ORIENTED_EDGE('',*,*,#56,.F.);
#674 = ORIENTED_EDGE('',*,*,#346,.T.);
#675 = ORIENTED_EDGE('',*,*,#676,.T.);
#676 = EDGE_CURVE('',#347,#677,#679,.T.);
#677 = VERTEX_POINT('',#678);
#678 = CARTESIAN_POINT('',(167.,157.49769880262,97.321545957));
#679 = SURFACE_CURVE('',#680,(#684,#691),.PCURVE_S1.);
#680 = LINE('',#681,#682);
#681 = CARTESIAN_POINT('',(-167.,157.49769880262,97.321545957));
#682 = VECTOR('',#683,1.);
#683 = DIRECTION('',(1.,0.,0.));
#684 = PCURVE('',#72,#685);
#685 = DEFINITIONAL_REPRESENTATION('',(#686),#690);
#686 = LINE('',#687,#688);
#687 = CARTESIAN_POINT('',(27.100622614629,-167.));
#688 = VECTOR('',#689,1.);
#689 = DIRECTION('',(0.,1.));
#690 = ( GEOMETRIC_REPRESENTATION_CONTEXT(2) 
PARAMETRIC_REPRESENTATION_CONTEXT() REPRESENTATION_CONTEXT('2D SPACE',''
  ) );
#691 = PCURVE('',#385,#692);
#692 = DEFINITIONAL_REPRESENTATION('',(#693),#697);
#693 = LINE('',#694,#695);
#694 = CARTESIAN_POINT('',(-0.,-167.));
#695 = VECTOR('',#696,1.);
#696 = DIRECTION('',(0.,1.));
#697 = ( GEOMETRIC_REPRESENTATION_CONTEXT(2) 
PARAMETRIC_REPRESENTATION_CONTEXT() REPRESENTATION_CONTEXT('2D SPACE',''
  ) );
#698 = ORIENTED_EDGE('',*,*,#699,.F.);
#699 = EDGE_CURVE('',#57,#677,#700,.T.);
#700 = SURFACE_CURVE('',#701,(#705,#712),.PCURVE_S1.);
#701 = LINE('',#702,#703);
#702 = CARTESIAN_POINT('',(167.,163.13223507264,123.82995494589));
#703 = VECTOR('',#704,1.);
#704 = DIRECTION('',(0.,-0.207911690818,-0.978147600734));
#705 = PCURVE('',#72,#706);
#706 = DEFINITIONAL_REPRESENTATION('',(#707),#711);
#707 = LINE('',#708,#709);
#708 = CARTESIAN_POINT('',(0.,167.));
#709 = VECTOR('',#710,1.);
#710 = DIRECTION('',(1.,0.));
#711 = ( GEOMETRIC_REPRESENTATION_CONTEXT(2) 
PARAMETRIC_REPRESENTATION_CONTEXT() REPRESENTATION_CONTEXT('2D SPACE',''
  ) );
#712 = PCURVE('',#100,#713);
#713 = DEFINITIONAL_REPRESENTATION('',(#714),#718);
#714 = LINE('',#715,#716);
#715 = CARTESIAN_POINT('',(7.957342766538,24.017503982586));
#716 = VECTOR('',#717,1.);
#717 = DIRECTION('',(-0.207911690818,-0.978147600734));
#718 = ( GEOMETRIC_REPRESENTATION_CONTEXT(2) 
PARAMETRIC_REPRESENTATION_CONTEXT() REPRESENTATION_CONTEXT('2D SPACE',''
  ) );
#719 = FACE_BOUND('',#720,.T.);
#720 = EDGE_LOOP('',(#721));
#721 = ORIENTED_EDGE('',*,*,#722,.T.);
#722 = EDGE_CURVE('',#723,#723,#725,.T.);
#723 = VERTEX_POINT('',#724);
#724 = CARTESIAN_POINT('',(-137.9,160.53333893742,111.60310993671));
#725 = SURFACE_CURVE('',#726,(#731,#742),.PCURVE_S1.);
#726 = CIRCLE('',#727,2.1);
#727 = AXIS2_PLACEMENT_3D('',#728,#729,#730);
#728 = CARTESIAN_POINT('',(-140.,160.53333893742,111.60310993671));
#729 = DIRECTION('',(0.,0.978147600734,-0.207911690818));
#730 = DIRECTION('',(1.,0.,0.));
#731 = PCURVE('',#72,#732);
#732 = DEFINITIONAL_REPRESENTATION('',(#733),#741);
#733 = ( BOUNDED_CURVE() B_SPLINE_CURVE(2,(#734,#735,#736,#737,#738,#739
,#740),.UNSPECIFIED.,.T.,.F.) B_SPLINE_CURVE_WITH_KNOTS((1,2,2,2,2,1),(
    -2.094395102393,0.,2.094395102393,4.188790204786,6.28318530718,
8.377580409573),.UNSPECIFIED.) CURVE() GEOMETRIC_REPRESENTATION_ITEM() 
RATIONAL_B_SPLINE_CURVE((1.,0.5,1.,0.5,1.,0.5,1.)) REPRESENTATION_ITEM(
  '') );
#734 = CARTESIAN_POINT('',(12.5,-137.9));
#735 = CARTESIAN_POINT('',(16.137306695895,-137.9));
#736 = CARTESIAN_POINT('',(14.318653347947,-141.05));
#737 = CARTESIAN_POINT('',(12.5,-144.2));
#738 = CARTESIAN_POINT('',(10.681346652053,-141.05));
#739 = CARTESIAN_POINT('',(8.862693304105,-137.9));
#740 = CARTESIAN_POINT('',(12.5,-137.9));
#741 = ( GEOMETRIC_REPRESENTATION_CONTEXT(2) 
PARAMETRIC_REPRESENTATION_CONTEXT() REPRESENTATION_CONTEXT('2D SPACE',''
  ) );
#742 = PCURVE('',#157,#743);
#743 = DEFINITIONAL_REPRESENTATION('',(#744),#748);
#744 = LINE('',#745,#746);
#745 = CARTESIAN_POINT('',(0.,0.5));
#746 = VECTOR('',#747,1.);
#747 = DIRECTION('',(1.,0.));
#748 = ( GEOMETRIC_REPRESENTATION_CONTEXT(2) 
PARAMETRIC_REPRESENTATION_CONTEXT() REPRESENTATION_CONTEXT('2D SPACE',''
  ) );
#749 = FACE_BOUND('',#750,.T.);
#750 = EDGE_LOOP('',(#751));
#751 = ORIENTED_EDGE('',*,*,#752,.T.);
#752 = EDGE_CURVE('',#753,#753,#755,.T.);
#753 = VERTEX_POINT('',#754);
#754 = CARTESIAN_POINT('',(-57.9,160.53333893742,111.60310993671));
#755 = SURFACE_CURVE('',#756,(#761,#772),.PCURVE_S1.);
#756 = CIRCLE('',#757,2.1);
#757 = AXIS2_PLACEMENT_3D('',#758,#759,#760);
#758 = CARTESIAN_POINT('',(-60.,160.53333893742,111.60310993671));
#759 = DIRECTION('',(0.,0.978147600734,-0.207911690818));
#760 = DIRECTION('',(1.,0.,0.));
#761 = PCURVE('',#72,#762);
#762 = DEFINITIONAL_REPRESENTATION('',(#763),#771);
#763 = ( BOUNDED_CURVE() B_SPLINE_CURVE(2,(#764,#765,#766,#767,#768,#769
,#770),.UNSPECIFIED.,.T.,.F.) B_SPLINE_CURVE_WITH_KNOTS((1,2,2,2,2,1),(
    -2.094395102393,0.,2.094395102393,4.188790204786,6.28318530718,
8.377580409573),.UNSPECIFIED.) CURVE() GEOMETRIC_REPRESENTATION_ITEM() 
RATIONAL_B_SPLINE_CURVE((1.,0.5,1.,0.5,1.,0.5,1.)) REPRESENTATION_ITEM(
  '') );
#764 = CARTESIAN_POINT('',(12.5,-57.9));
#765 = CARTESIAN_POINT('',(16.137306695895,-57.9));
#766 = CARTESIAN_POINT('',(14.318653347947,-61.05));
#767 = CARTESIAN_POINT('',(12.5,-64.2));
#768 = CARTESIAN_POINT('',(10.681346652053,-61.05));
#769 = CARTESIAN_POINT('',(8.862693304105,-57.9));
#770 = CARTESIAN_POINT('',(12.5,-57.9));
#771 = ( GEOMETRIC_REPRESENTATION_CONTEXT(2) 
PARAMETRIC_REPRESENTATION_CONTEXT() REPRESENTATION_CONTEXT('2D SPACE',''
  ) );
#772 = PCURVE('',#208,#773);
#773 = DEFINITIONAL_REPRESENTATION('',(#774),#778);
#774 = LINE('',#775,#776);
#775 = CARTESIAN_POINT('',(0.,0.5));
#776 = VECTOR('',#777,1.);
#777 = DIRECTION('',(1.,0.));
#778 = ( GEOMETRIC_REPRESENTATION_CONTEXT(2) 
PARAMETRIC_REPRESENTATION_CONTEXT() REPRESENTATION_CONTEXT('2D SPACE',''
  ) );
#779 = FACE_BOUND('',#780,.T.);
#780 = EDGE_LOOP('',(#781));
#781 = ORIENTED_EDGE('',*,*,#782,.T.);
#782 = EDGE_CURVE('',#783,#783,#785,.T.);
#783 = VERTEX_POINT('',#784);
#784 = CARTESIAN_POINT('',(62.1,160.53333893742,111.60310993671));
#785 = SURFACE_CURVE('',#786,(#791,#802),.PCURVE_S1.);
#786 = CIRCLE('',#787,2.1);
#787 = AXIS2_PLACEMENT_3D('',#788,#789,#790);
#788 = CARTESIAN_POINT('',(60.,160.53333893742,111.60310993671));
#789 = DIRECTION('',(0.,0.978147600734,-0.207911690818));
#790 = DIRECTION('',(1.,0.,0.));
#791 = PCURVE('',#72,#792);
#792 = DEFINITIONAL_REPRESENTATION('',(#793),#801);
#793 = ( BOUNDED_CURVE() B_SPLINE_CURVE(2,(#794,#795,#796,#797,#798,#799
,#800),.UNSPECIFIED.,.T.,.F.) B_SPLINE_CURVE_WITH_KNOTS((1,2,2,2,2,1),(
    -2.094395102393,0.,2.094395102393,4.188790204786,6.28318530718,
8.377580409573),.UNSPECIFIED.) CURVE() GEOMETRIC_REPRESENTATION_ITEM() 
RATIONAL_B_SPLINE_CURVE((1.,0.5,1.,0.5,1.,0.5,1.)) REPRESENTATION_ITEM(
  '') );
#794 = CARTESIAN_POINT('',(12.5,62.1));
#795 = CARTESIAN_POINT('',(16.137306695895,62.1));
#796 = CARTESIAN_POINT('',(14.318653347947,58.95));
#797 = CARTESIAN_POINT('',(12.5,55.8));
#798 = CARTESIAN_POINT('',(10.681346652053,58.95));
#799 = CARTESIAN_POINT('',(8.862693304105,62.1));
#800 = CARTESIAN_POINT('',(12.5,62.1));
#801 = ( GEOMETRIC_REPRESENTATION_CONTEXT(2) 
PARAMETRIC_REPRESENTATION_CONTEXT() REPRESENTATION_CONTEXT('2D SPACE',''
  ) );
#802 = PCURVE('',#259,#803);
#803 = DEFINITIONAL_REPRESENTATION('',(#804),#808);
#804 = LINE('',#805,#806);
#805 = CARTESIAN_POINT('',(0.,0.5));
#806 = VECTOR('',#807,1.);
#807 = DIRECTION('',(1.,0.));
#808 = ( GEOMETRIC_REPRESENTATION_CONTEXT(2) 
PARAMETRIC_REPRESENTATION_CONTEXT() REPRESENTATION_CONTEXT('2D SPACE',''
  ) );
#809 = FACE_BOUND('',#810,.T.);
#810 = EDGE_LOOP('',(#811));
#811 = ORIENTED_EDGE('',*,*,#812,.T.);
#812 = EDGE_CURVE('',#813,#813,#815,.T.);
#813 = VERTEX_POINT('',#814);
#814 = CARTESIAN_POINT('',(142.1,160.53333893742,111.60310993671));
#815 = SURFACE_CURVE('',#816,(#821,#832),.PCURVE_S1.);
#816 = CIRCLE('',#817,2.1);
#817 = AXIS2_PLACEMENT_3D('',#818,#819,#820);
#818 = CARTESIAN_POINT('',(140.,160.53333893742,111.60310993671));
#819 = DIRECTION('',(0.,0.978147600734,-0.207911690818));
#820 = DIRECTION('',(1.,0.,0.));
#821 = PCURVE('',#72,#822);
#822 = DEFINITIONAL_REPRESENTATION('',(#823),#831);
#823 = ( BOUNDED_CURVE() B_SPLINE_CURVE(2,(#824,#825,#826,#827,#828,#829
,#830),.UNSPECIFIED.,.T.,.F.) B_SPLINE_CURVE_WITH_KNOTS((1,2,2,2,2,1),(
    -2.094395102393,0.,2.094395102393,4.188790204786,6.28318530718,
8.377580409573),.UNSPECIFIED.) CURVE() GEOMETRIC_REPRESENTATION_ITEM() 
RATIONAL_B_SPLINE_CURVE((1.,0.5,1.,0.5,1.,0.5,1.)) REPRESENTATION_ITEM(
  '') );
#824 = CARTESIAN_POINT('',(12.5,142.1));
#825 = CARTESIAN_POINT('',(16.137306695895,142.1));
#826 = CARTESIAN_POINT('',(14.318653347947,138.95));
#827 = CARTESIAN_POINT('',(12.5,135.8));
#828 = CARTESIAN_POINT('',(10.681346652053,138.95));
#829 = CARTESIAN_POINT('',(8.862693304105,142.1));
#830 = CARTESIAN_POINT('',(12.5,142.1));
#831 = ( GEOMETRIC_REPRESENTATION_CONTEXT(2) 
PARAMETRIC_REPRESENTATION_CONTEXT() REPRESENTATION_CONTEXT('2D SPACE',''
  ) );
#832 = PCURVE('',#310,#833);
#833 = DEFINITIONAL_REPRESENTATION('',(#834),#838);
#834 = LINE('',#835,#836);
#835 = CARTESIAN_POINT('',(0.,0.5));
#836 = VECTOR('',#837,1.);
#837 = DIRECTION('',(1.,0.));
#838 = ( GEOMETRIC_REPRESENTATION_CONTEXT(2) 
PARAMETRIC_REPRESENTATION_CONTEXT() REPRESENTATION_CONTEXT('2D SPACE',''
  ) );
#839 = ADVANCED_FACE('',(#840),#100,.T.);
#840 = FACE_BOUND('',#841,.T.);
#841 = EDGE_LOOP('',(#842,#843,#844,#865));
#842 = ORIENTED_EDGE('',*,*,#84,.T.);
#843 = ORIENTED_EDGE('',*,*,#699,.T.);
#844 = ORIENTED_EDGE('',*,*,#845,.T.);
#845 = EDGE_CURVE('',#677,#424,#846,.T.);
#846 = SURFACE_CURVE('',#847,(#851,#858),.PCURVE_S1.);
#847 = LINE('',#848,#849);
#848 = CARTESIAN_POINT('',(167.,157.49769880262,97.321545957));
#849 = VECTOR('',#850,1.);
#850 = DIRECTION('',(0.,-0.990268068742,-0.13917310096));
#851 = PCURVE('',#100,#852);
#852 = DEFINITIONAL_REPRESENTATION('',(#853),#857);
#853 = LINE('',#854,#855);
#854 = CARTESIAN_POINT('',(2.322806496516,-2.490905006306));
#855 = VECTOR('',#856,1.);
#856 = DIRECTION('',(-0.990268068742,-0.13917310096));
#857 = ( GEOMETRIC_REPRESENTATION_CONTEXT(2) 
PARAMETRIC_REPRESENTATION_CONTEXT() REPRESENTATION_CONTEXT('2D SPACE',''
  ) );
#858 = PCURVE('',#385,#859);
#859 = DEFINITIONAL_REPRESENTATION('',(#860),#864);
#860 = LINE('',#861,#862);
#861 = CARTESIAN_POINT('',(0.,167.));
#862 = VECTOR('',#863,1.);
#863 = DIRECTION('',(1.,0.));
#864 = ( GEOMETRIC_REPRESENTATION_CONTEXT(2) 
PARAMETRIC_REPRESENTATION_CONTEXT() REPRESENTATION_CONTEXT('2D SPACE',''
  ) );
#865 = ORIENTED_EDGE('',*,*,#423,.T.);
#866 = ADVANCED_FACE('',(#867),#157,.F.);
#867 = FACE_BOUND('',#868,.F.);
#868 = EDGE_LOOP('',(#869,#870,#891,#892));
#869 = ORIENTED_EDGE('',*,*,#140,.F.);
#870 = ORIENTED_EDGE('',*,*,#871,.F.);
#871 = EDGE_CURVE('',#723,#141,#872,.T.);
#872 = SEAM_CURVE('',#873,(#877,#884),.PCURVE_S1.);
#873 = LINE('',#874,#875);
#874 = CARTESIAN_POINT('',(-137.9,160.04426513705,111.70706578212));
#875 = VECTOR('',#876,1.);
#876 = DIRECTION('',(0.,0.978147600734,-0.207911690818));
#877 = PCURVE('',#157,#878);
#878 = DEFINITIONAL_REPRESENTATION('',(#879),#883);
#879 = LINE('',#880,#881);
#880 = CARTESIAN_POINT('',(6.28318530718,-0.));
#881 = VECTOR('',#882,1.);
#882 = DIRECTION('',(0.,1.));
#883 = ( GEOMETRIC_REPRESENTATION_CONTEXT(2) 
PARAMETRIC_REPRESENTATION_CONTEXT() REPRESENTATION_CONTEXT('2D SPACE',''
  ) );
#884 = PCURVE('',#157,#885);
#885 = DEFINITIONAL_REPRESENTATION('',(#886),#890);
#886 = LINE('',#887,#888);
#887 = CARTESIAN_POINT('',(0.,-0.));
#888 = VECTOR('',#889,1.);
#889 = DIRECTION('',(0.,1.));
#890 = ( GEOMETRIC_REPRESENTATION_CONTEXT(2) 
PARAMETRIC_REPRESENTATION_CONTEXT() REPRESENTATION_CONTEXT('2D SPACE',''
  ) );
#891 = ORIENTED_EDGE('',*,*,#722,.T.);
#892 = ORIENTED_EDGE('',*,*,#871,.T.);
#893 = ADVANCED_FACE('',(#894),#208,.F.);
#894 = FACE_BOUND('',#895,.F.);
#895 = EDGE_LOOP('',(#896,#897,#918,#919));
#896 = ORIENTED_EDGE('',*,*,#191,.F.);
#897 = ORIENTED_EDGE('',*,*,#898,.F.);
#898 = EDGE_CURVE('',#753,#192,#899,.T.);
#899 = SEAM_CURVE('',#900,(#904,#911),.PCURVE_S1.);
#900 = LINE('',#901,#902);
#901 = CARTESIAN_POINT('',(-57.9,160.04426513705,111.70706578212));
#902 = VECTOR('',#903,1.);
#903 = DIRECTION('',(0.,0.978147600734,-0.207911690818));
#904 = PCURVE('',#208,#905);
#905 = DEFINITIONAL_REPRESENTATION('',(#906),#910);
#906 = LINE('',#907,#908);
#907 = CARTESIAN_POINT('',(6.28318530718,-0.));
#908 = VECTOR('',#909,1.);
#909 = DIRECTION('',(0.,1.));
#910 = ( GEOMETRIC_REPRESENTATION_CONTEXT(2) 
PARAMETRIC_REPRESENTATION_CONTEXT() REPRESENTATION_CONTEXT('2D SPACE',''
  ) );
#911 = PCURVE('',#208,#912);
#912 = DEFINITIONAL_REPRESENTATION('',(#913),#917);
#913 = LINE('',#914,#915);
#914 = CARTESIAN_POINT('',(0.,-0.));
#915 = VECTOR('',#916,1.);
#916 = DIRECTION('',(0.,1.));
#917 = ( GEOMETRIC_REPRESENTATION_CONTEXT(2) 
PARAMETRIC_REPRESENTATION_CONTEXT() REPRESENTATION_CONTEXT('2D SPACE',''
  ) );
#918 = ORIENTED_EDGE('',*,*,#752,.T.);
#919 = ORIENTED_EDGE('',*,*,#898,.T.);
#920 = ADVANCED_FACE('',(#921),#259,.F.);
#921 = FACE_BOUND('',#922,.F.);
#922 = EDGE_LOOP('',(#923,#924,#945,#946));
#923 = ORIENTED_EDGE('',*,*,#242,.F.);
#924 = ORIENTED_EDGE('',*,*,#925,.F.);
#925 = EDGE_CURVE('',#783,#243,#926,.T.);
#926 = SEAM_CURVE('',#927,(#931,#938),.PCURVE_S1.);
#927 = LINE('',#928,#929);
#928 = CARTESIAN_POINT('',(62.1,160.04426513705,111.70706578212));
#929 = VECTOR('',#930,1.);
#930 = DIRECTION('',(0.,0.978147600734,-0.207911690818));
#931 = PCURVE('',#259,#932);
#932 = DEFINITIONAL_REPRESENTATION('',(#933),#937);
#933 = LINE('',#934,#935);
#934 = CARTESIAN_POINT('',(6.28318530718,-0.));
#935 = VECTOR('',#936,1.);
#936 = DIRECTION('',(0.,1.));
#937 = ( GEOMETRIC_REPRESENTATION_CONTEXT(2) 
PARAMETRIC_REPRESENTATION_CONTEXT() REPRESENTATION_CONTEXT('2D SPACE',''
  ) );
#938 = PCURVE('',#259,#939);
#939 = DEFINITIONAL_REPRESENTATION('',(#940),#944);
#940 = LINE('',#941,#942);
#941 = CARTESIAN_POINT('',(0.,-0.));
#942 = VECTOR('',#943,1.);
#943 = DIRECTION('',(0.,1.));
#944 = ( GEOMETRIC_REPRESENTATION_CONTEXT(2) 
PARAMETRIC_REPRESENTATION_CONTEXT() REPRESENTATION_CONTEXT('2D SPACE',''
  ) );
#945 = ORIENTED_EDGE('',*,*,#782,.T.);
#946 = ORIENTED_EDGE('',*,*,#925,.T.);
#947 = ADVANCED_FACE('',(#948),#310,.F.);
#948 = FACE_BOUND('',#949,.F.);
#949 = EDGE_LOOP('',(#950,#951,#972,#973));
#950 = ORIENTED_EDGE('',*,*,#293,.F.);
#951 = ORIENTED_EDGE('',*,*,#952,.F.);
#952 = EDGE_CURVE('',#813,#294,#953,.T.);
#953 = SEAM_CURVE('',#954,(#958,#965),.PCURVE_S1.);
#954 = LINE('',#955,#956);
#955 = CARTESIAN_POINT('',(142.1,160.04426513705,111.70706578212));
#956 = VECTOR('',#957,1.);
#957 = DIRECTION('',(0.,0.978147600734,-0.207911690818));
#958 = PCURVE('',#310,#959);
#959 = DEFINITIONAL_REPRESENTATION('',(#960),#964);
#960 = LINE('',#961,#962);
#961 = CARTESIAN_POINT('',(6.28318530718,-0.));
#962 = VECTOR('',#963,1.);
#963 = DIRECTION('',(0.,1.));
#964 = ( GEOMETRIC_REPRESENTATION_CONTEXT(2) 
PARAMETRIC_REPRESENTATION_CONTEXT() REPRESENTATION_CONTEXT('2D SPACE',''
  ) );
#965 = PCURVE('',#310,#966);
#966 = DEFINITIONAL_REPRESENTATION('',(#967),#971);
#967 = LINE('',#968,#969);
#968 = CARTESIAN_POINT('',(0.,-0.));
#969 = VECTOR('',#970,1.);
#970 = DIRECTION('',(0.,1.));
#971 = ( GEOMETRIC_REPRESENTATION_CONTEXT(2) 
PARAMETRIC_REPRESENTATION_CONTEXT() REPRESENTATION_CONTEXT('2D SPACE',''
  ) );
#972 = ORIENTED_EDGE('',*,*,#812,.T.);
#973 = ORIENTED_EDGE('',*,*,#952,.T.);
#974 = ADVANCED_FACE('',(#975,#981,#1011,#1041,#1071),#385,.T.);
#975 = FACE_BOUND('',#976,.T.);
#976 = EDGE_LOOP('',(#977,#978,#979,#980));
#977 = ORIENTED_EDGE('',*,*,#676,.F.);
#978 = ORIENTED_EDGE('',*,*,#369,.T.);
#979 = ORIENTED_EDGE('',*,*,#446,.F.);
#980 = ORIENTED_EDGE('',*,*,#845,.F.);
#981 = FACE_BOUND('',#982,.T.);
#982 = EDGE_LOOP('',(#983));
#983 = ORIENTED_EDGE('',*,*,#984,.T.);
#984 = EDGE_CURVE('',#985,#985,#987,.T.);
#985 = VERTEX_POINT('',#986);
#986 = CARTESIAN_POINT('',(-137.9,143.03916844361,95.289532031774));
#987 = SURFACE_CURVE('',#988,(#993,#1004),.PCURVE_S1.);
#988 = CIRCLE('',#989,2.1);
#989 = AXIS2_PLACEMENT_3D('',#990,#991,#992);
#990 = CARTESIAN_POINT('',(-140.,143.03916844361,95.289532031774));
#991 = DIRECTION('',(0.,0.13917310096,-0.990268068742));
#992 = DIRECTION('',(1.,0.,0.));
#993 = PCURVE('',#385,#994);
#994 = DEFINITIONAL_REPRESENTATION('',(#995),#1003);
#995 = ( BOUNDED_CURVE() B_SPLINE_CURVE(2,(#996,#997,#998,#999,#1000,
#1001,#1002),.UNSPECIFIED.,.T.,.F.) B_SPLINE_CURVE_WITH_KNOTS((1,2,2,2,2
    ,1),(-2.094395102393,0.,2.094395102393,4.188790204786,6.28318530718,
8.377580409573),.UNSPECIFIED.) CURVE() GEOMETRIC_REPRESENTATION_ITEM() 
RATIONAL_B_SPLINE_CURVE((1.,0.5,1.,0.5,1.,0.5,1.)) REPRESENTATION_ITEM(
  '') );
#996 = CARTESIAN_POINT('',(14.600622614629,-137.9));
#997 = CARTESIAN_POINT('',(18.237929310524,-137.9));
#998 = CARTESIAN_POINT('',(16.419275962576,-141.05));
#999 = CARTESIAN_POINT('',(14.600622614629,-144.2));
#1000 = CARTESIAN_POINT('',(12.781969266682,-141.05));
#1001 = CARTESIAN_POINT('',(10.963315918734,-137.9));
#1002 = CARTESIAN_POINT('',(14.600622614629,-137.9));
#1003 = ( GEOMETRIC_REPRESENTATION_CONTEXT(2) 
PARAMETRIC_REPRESENTATION_CONTEXT() REPRESENTATION_CONTEXT('2D SPACE',''
  ) );
#1004 = PCURVE('',#486,#1005);
#1005 = DEFINITIONAL_REPRESENTATION('',(#1006),#1010);
#1006 = LINE('',#1007,#1008);
#1007 = CARTESIAN_POINT('',(0.,0.5));
#1008 = VECTOR('',#1009,1.);
#1009 = DIRECTION('',(1.,0.));
#1010 = ( GEOMETRIC_REPRESENTATION_CONTEXT(2) 
PARAMETRIC_REPRESENTATION_CONTEXT() REPRESENTATION_CONTEXT('2D SPACE',''
  ) );
#1011 = FACE_BOUND('',#1012,.T.);
#1012 = EDGE_LOOP('',(#1013));
#1013 = ORIENTED_EDGE('',*,*,#1014,.T.);
#1014 = EDGE_CURVE('',#1015,#1015,#1017,.T.);
#1015 = VERTEX_POINT('',#1016);
#1016 = CARTESIAN_POINT('',(-57.9,143.03916844361,95.289532031774));
#1017 = SURFACE_CURVE('',#1018,(#1023,#1034),.PCURVE_S1.);
#1018 = CIRCLE('',#1019,2.1);
#1019 = AXIS2_PLACEMENT_3D('',#1020,#1021,#1022);
#1020 = CARTESIAN_POINT('',(-60.,143.03916844361,95.289532031774));
#1021 = DIRECTION('',(0.,0.13917310096,-0.990268068742));
#1022 = DIRECTION('',(1.,0.,0.));
#1023 = PCURVE('',#385,#1024);
#1024 = DEFINITIONAL_REPRESENTATION('',(#1025),#1033);
#1025 = ( BOUNDED_CURVE() B_SPLINE_CURVE(2,(#1026,#1027,#1028,#1029,
#1030,#1031,#1032),.UNSPECIFIED.,.T.,.F.) B_SPLINE_CURVE_WITH_KNOTS((1,2
    ,2,2,2,1),(-2.094395102393,0.,2.094395102393,4.188790204786,
6.28318530718,8.377580409573),.UNSPECIFIED.) CURVE() 
GEOMETRIC_REPRESENTATION_ITEM() RATIONAL_B_SPLINE_CURVE((1.,0.5,1.,0.5,
1.,0.5,1.)) REPRESENTATION_ITEM('') );
#1026 = CARTESIAN_POINT('',(14.600622614629,-57.9));
#1027 = CARTESIAN_POINT('',(18.237929310524,-57.9));
#1028 = CARTESIAN_POINT('',(16.419275962576,-61.05));
#1029 = CARTESIAN_POINT('',(14.600622614629,-64.2));
#1030 = CARTESIAN_POINT('',(12.781969266682,-61.05));
#1031 = CARTESIAN_POINT('',(10.963315918734,-57.9));
#1032 = CARTESIAN_POINT('',(14.600622614629,-57.9));
#1033 = ( GEOMETRIC_REPRESENTATION_CONTEXT(2) 
PARAMETRIC_REPRESENTATION_CONTEXT() REPRESENTATION_CONTEXT('2D SPACE',''
  ) );
#1034 = PCURVE('',#537,#1035);
#1035 = DEFINITIONAL_REPRESENTATION('',(#1036),#1040);
#1036 = LINE('',#1037,#1038);
#1037 = CARTESIAN_POINT('',(0.,0.5));
#1038 = VECTOR('',#1039,1.);
#1039 = DIRECTION('',(1.,0.));
#1040 = ( GEOMETRIC_REPRESENTATION_CONTEXT(2) 
PARAMETRIC_REPRESENTATION_CONTEXT() REPRESENTATION_CONTEXT('2D SPACE',''
  ) );
#1041 = FACE_BOUND('',#1042,.T.);
#1042 = EDGE_LOOP('',(#1043));
#1043 = ORIENTED_EDGE('',*,*,#1044,.T.);
#1044 = EDGE_CURVE('',#1045,#1045,#1047,.T.);
#1045 = VERTEX_POINT('',#1046);
#1046 = CARTESIAN_POINT('',(62.1,143.03916844361,95.289532031774));
#1047 = SURFACE_CURVE('',#1048,(#1053,#1064),.PCURVE_S1.);
#1048 = CIRCLE('',#1049,2.1);
#1049 = AXIS2_PLACEMENT_3D('',#1050,#1051,#1052);
#1050 = CARTESIAN_POINT('',(60.,143.03916844361,95.289532031774));
#1051 = DIRECTION('',(0.,0.13917310096,-0.990268068742));
#1052 = DIRECTION('',(1.,0.,0.));
#1053 = PCURVE('',#385,#1054);
#1054 = DEFINITIONAL_REPRESENTATION('',(#1055),#1063);
#1055 = ( BOUNDED_CURVE() B_SPLINE_CURVE(2,(#1056,#1057,#1058,#1059,
#1060,#1061,#1062),.UNSPECIFIED.,.T.,.F.) B_SPLINE_CURVE_WITH_KNOTS((1,2
    ,2,2,2,1),(-2.094395102393,0.,2.094395102393,4.188790204786,
6.28318530718,8.377580409573),.UNSPECIFIED.) CURVE() 
GEOMETRIC_REPRESENTATION_ITEM() RATIONAL_B_SPLINE_CURVE((1.,0.5,1.,0.5,
1.,0.5,1.)) REPRESENTATION_ITEM('') );
#1056 = CARTESIAN_POINT('',(14.600622614629,62.1));
#1057 = CARTESIAN_POINT('',(18.237929310524,62.1));
#1058 = CARTESIAN_POINT('',(16.419275962576,58.95));
#1059 = CARTESIAN_POINT('',(14.600622614629,55.8));
#1060 = CARTESIAN_POINT('',(12.781969266682,58.95));
#1061 = CARTESIAN_POINT('',(10.963315918734,62.1));
#1062 = CARTESIAN_POINT('',(14.600622614629,62.1));
#1063 = ( GEOMETRIC_REPRESENTATION_CONTEXT(2) 
PARAMETRIC_REPRESENTATION_CONTEXT() REPRESENTATION_CONTEXT('2D SPACE',''
  ) );
#1064 = PCURVE('',#588,#1065);
#1065 = DEFINITIONAL_REPRESENTATION('',(#1066),#1070);
#1066 = LINE('',#1067,#1068);
#1067 = CARTESIAN_POINT('',(0.,0.5));
#1068 = VECTOR('',#1069,1.);
#1069 = DIRECTION('',(1.,0.));
#1070 = ( GEOMETRIC_REPRESENTATION_CONTEXT(2) 
PARAMETRIC_REPRESENTATION_CONTEXT() REPRESENTATION_CONTEXT('2D SPACE',''
  ) );
#1071 = FACE_BOUND('',#1072,.T.);
#1072 = EDGE_LOOP('',(#1073));
#1073 = ORIENTED_EDGE('',*,*,#1074,.T.);
#1074 = EDGE_CURVE('',#1075,#1075,#1077,.T.);
#1075 = VERTEX_POINT('',#1076);
#1076 = CARTESIAN_POINT('',(142.1,143.03916844361,95.289532031774));
#1077 = SURFACE_CURVE('',#1078,(#1083,#1094),.PCURVE_S1.);
#1078 = CIRCLE('',#1079,2.1);
#1079 = AXIS2_PLACEMENT_3D('',#1080,#1081,#1082);
#1080 = CARTESIAN_POINT('',(140.,143.03916844361,95.289532031774));
#1081 = DIRECTION('',(0.,0.13917310096,-0.990268068742));
#1082 = DIRECTION('',(1.,0.,0.));
#1083 = PCURVE('',#385,#1084);
#1084 = DEFINITIONAL_REPRESENTATION('',(#1085),#1093);
#1085 = ( BOUNDED_CURVE() B_SPLINE_CURVE(2,(#1086,#1087,#1088,#1089,
#1090,#1091,#1092),.UNSPECIFIED.,.T.,.F.) B_SPLINE_CURVE_WITH_KNOTS((1,2
    ,2,2,2,1),(-2.094395102393,0.,2.094395102393,4.188790204786,
6.28318530718,8.377580409573),.UNSPECIFIED.) CURVE() 
GEOMETRIC_REPRESENTATION_ITEM() RATIONAL_B_SPLINE_CURVE((1.,0.5,1.,0.5,
1.,0.5,1.)) REPRESENTATION_ITEM('') );
#1086 = CARTESIAN_POINT('',(14.600622614629,142.1));
#1087 = CARTESIAN_POINT('',(18.237929310524,142.1));
#1088 = CARTESIAN_POINT('',(16.419275962576,138.95));
#1089 = CARTESIAN_POINT('',(14.600622614629,135.8));
#1090 = CARTESIAN_POINT('',(12.781969266682,138.95));
#1091 = CARTESIAN_POINT('',(10.963315918734,142.1));
#1092 = CARTESIAN_POINT('',(14.600622614629,142.1));
#1093 = ( GEOMETRIC_REPRESENTATION_CONTEXT(2) 
PARAMETRIC_REPRESENTATION_CONTEXT() REPRESENTATION_CONTEXT('2D SPACE',''
  ) );
#1094 = PCURVE('',#639,#1095);
#1095 = DEFINITIONAL_REPRESENTATION('',(#1096),#1100);
#1096 = LINE('',#1097,#1098);
#1097 = CARTESIAN_POINT('',(0.,0.5));
#1098 = VECTOR('',#1099,1.);
#1099 = DIRECTION('',(1.,0.));
#1100 = ( GEOMETRIC_REPRESENTATION_CONTEXT(2) 
PARAMETRIC_REPRESENTATION_CONTEXT() REPRESENTATION_CONTEXT('2D SPACE',''
  ) );
#1101 = ADVANCED_FACE('',(#1102),#486,.F.);
#1102 = FACE_BOUND('',#1103,.F.);
#1103 = EDGE_LOOP('',(#1104,#1105,#1126,#1127));
#1104 = ORIENTED_EDGE('',*,*,#469,.F.);
#1105 = ORIENTED_EDGE('',*,*,#1106,.F.);
#1106 = EDGE_CURVE('',#985,#470,#1107,.T.);
#1107 = SEAM_CURVE('',#1108,(#1112,#1119),.PCURVE_S1.);
#1108 = LINE('',#1109,#1110);
#1109 = CARTESIAN_POINT('',(-137.9,142.96958189313,95.784666066145));
#1110 = VECTOR('',#1111,1.);
#1111 = DIRECTION('',(0.,0.13917310096,-0.990268068742));
#1112 = PCURVE('',#486,#1113);
#1113 = DEFINITIONAL_REPRESENTATION('',(#1114),#1118);
#1114 = LINE('',#1115,#1116);
#1115 = CARTESIAN_POINT('',(6.28318530718,-0.));
#1116 = VECTOR('',#1117,1.);
#1117 = DIRECTION('',(0.,1.));
#1118 = ( GEOMETRIC_REPRESENTATION_CONTEXT(2) 
PARAMETRIC_REPRESENTATION_CONTEXT() REPRESENTATION_CONTEXT('2D SPACE',''
  ) );
#1119 = PCURVE('',#486,#1120);
#1120 = DEFINITIONAL_REPRESENTATION('',(#1121),#1125);
#1121 = LINE('',#1122,#1123);
#1122 = CARTESIAN_POINT('',(0.,-0.));
#1123 = VECTOR('',#1124,1.);
#1124 = DIRECTION('',(0.,1.));
#1125 = ( GEOMETRIC_REPRESENTATION_CONTEXT(2) 
PARAMETRIC_REPRESENTATION_CONTEXT() REPRESENTATION_CONTEXT('2D SPACE',''
  ) );
#1126 = ORIENTED_EDGE('',*,*,#984,.T.);
#1127 = ORIENTED_EDGE('',*,*,#1106,.T.);
#1128 = ADVANCED_FACE('',(#1129),#537,.F.);
#1129 = FACE_BOUND('',#1130,.F.);
#1130 = EDGE_LOOP('',(#1131,#1132,#1153,#1154));
#1131 = ORIENTED_EDGE('',*,*,#520,.F.);
#1132 = ORIENTED_EDGE('',*,*,#1133,.F.);
#1133 = EDGE_CURVE('',#1015,#521,#1134,.T.);
#1134 = SEAM_CURVE('',#1135,(#1139,#1146),.PCURVE_S1.);
#1135 = LINE('',#1136,#1137);
#1136 = CARTESIAN_POINT('',(-57.9,142.96958189313,95.784666066145));
#1137 = VECTOR('',#1138,1.);
#1138 = DIRECTION('',(0.,0.13917310096,-0.990268068742));
#1139 = PCURVE('',#537,#1140);
#1140 = DEFINITIONAL_REPRESENTATION('',(#1141),#1145);
#1141 = LINE('',#1142,#1143);
#1142 = CARTESIAN_POINT('',(6.28318530718,-0.));
#1143 = VECTOR('',#1144,1.);
#1144 = DIRECTION('',(0.,1.));
#1145 = ( GEOMETRIC_REPRESENTATION_CONTEXT(2) 
PARAMETRIC_REPRESENTATION_CONTEXT() REPRESENTATION_CONTEXT('2D SPACE',''
  ) );
#1146 = PCURVE('',#537,#1147);
#1147 = DEFINITIONAL_REPRESENTATION('',(#1148),#1152);
#1148 = LINE('',#1149,#1150);
#1149 = CARTESIAN_POINT('',(0.,-0.));
#1150 = VECTOR('',#1151,1.);
#1151 = DIRECTION('',(0.,1.));
#1152 = ( GEOMETRIC_REPRESENTATION_CONTEXT(2) 
PARAMETRIC_REPRESENTATION_CONTEXT() REPRESENTATION_CONTEXT('2D SPACE',''
  ) );
#1153 = ORIENTED_EDGE('',*,*,#1014,.T.);
#1154 = ORIENTED_EDGE('',*,*,#1133,.T.);
#1155 = ADVANCED_FACE('',(#1156),#588,.F.);
#1156 = FACE_BOUND('',#1157,.F.);
#1157 = EDGE_LOOP('',(#1158,#1159,#1180,#1181));
#1158 = ORIENTED_EDGE('',*,*,#571,.F.);
#1159 = ORIENTED_EDGE('',*,*,#1160,.F.);
#1160 = EDGE_CURVE('',#1045,#572,#1161,.T.);
#1161 = SEAM_CURVE('',#1162,(#1166,#1173),.PCURVE_S1.);
#1162 = LINE('',#1163,#1164);
#1163 = CARTESIAN_POINT('',(62.1,142.96958189313,95.784666066145));
#1164 = VECTOR('',#1165,1.);
#1165 = DIRECTION('',(0.,0.13917310096,-0.990268068742));
#1166 = PCURVE('',#588,#1167);
#1167 = DEFINITIONAL_REPRESENTATION('',(#1168),#1172);
#1168 = LINE('',#1169,#1170);
#1169 = CARTESIAN_POINT('',(6.28318530718,-0.));
#1170 = VECTOR('',#1171,1.);
#1171 = DIRECTION('',(0.,1.));
#1172 = ( GEOMETRIC_REPRESENTATION_CONTEXT(2) 
PARAMETRIC_REPRESENTATION_CONTEXT() REPRESENTATION_CONTEXT('2D SPACE',''
  ) );
#1173 = PCURVE('',#588,#1174);
#1174 = DEFINITIONAL_REPRESENTATION('',(#1175),#1179);
#1175 = LINE('',#1176,#1177);
#1176 = CARTESIAN_POINT('',(0.,-0.));
#1177 = VECTOR('',#1178,1.);
#1178 = DIRECTION('',(0.,1.));
#1179 = ( GEOMETRIC_REPRESENTATION_CONTEXT(2) 
PARAMETRIC_REPRESENTATION_CONTEXT() REPRESENTATION_CONTEXT('2D SPACE',''
  ) );
#1180 = ORIENTED_EDGE('',*,*,#1044,.T.);
#1181 = ORIENTED_EDGE('',*,*,#1160,.T.);
#1182 = ADVANCED_FACE('',(#1183),#639,.F.);
#1183 = FACE_BOUND('',#1184,.F.);
#1184 = EDGE_LOOP('',(#1185,#1186,#1207,#1208));
#1185 = ORIENTED_EDGE('',*,*,#622,.F.);
#1186 = ORIENTED_EDGE('',*,*,#1187,.F.);
#1187 = EDGE_CURVE('',#1075,#623,#1188,.T.);
#1188 = SEAM_CURVE('',#1189,(#1193,#1200),.PCURVE_S1.);
#1189 = LINE('',#1190,#1191);
#1190 = CARTESIAN_POINT('',(142.1,142.96958189313,95.784666066145));
#1191 = VECTOR('',#1192,1.);
#1192 = DIRECTION('',(0.,0.13917310096,-0.990268068742));
#1193 = PCURVE('',#639,#1194);
#1194 = DEFINITIONAL_REPRESENTATION('',(#1195),#1199);
#1195 = LINE('',#1196,#1197);
#1196 = CARTESIAN_POINT('',(6.28318530718,-0.));
#1197 = VECTOR('',#1198,1.);
#1198 = DIRECTION('',(0.,1.));
#1199 = ( GEOMETRIC_REPRESENTATION_CONTEXT(2) 
PARAMETRIC_REPRESENTATION_CONTEXT() REPRESENTATION_CONTEXT('2D SPACE',''
  ) );
#1200 = PCURVE('',#639,#1201);
#1201 = DEFINITIONAL_REPRESENTATION('',(#1202),#1206);
#1202 = LINE('',#1203,#1204);
#1203 = CARTESIAN_POINT('',(0.,-0.));
#1204 = VECTOR('',#1205,1.);
#1205 = DIRECTION('',(0.,1.));
#1206 = ( GEOMETRIC_REPRESENTATION_CONTEXT(2) 
PARAMETRIC_REPRESENTATION_CONTEXT() REPRESENTATION_CONTEXT('2D SPACE',''
  ) );
#1207 = ORIENTED_EDGE('',*,*,#1074,.T.);
#1208 = ORIENTED_EDGE('',*,*,#1187,.T.);
#1209 = ( GEOMETRIC_REPRESENTATION_CONTEXT(3) 
GLOBAL_UNCERTAINTY_ASSIGNED_CONTEXT((#1213)) 
GLOBAL_UNIT_ASSIGNED_CONTEXT((#1210,#1211,#1212)) REPRESENTATION_CONTEXT
('Context #1','3D Context with UNIT and UNCERTAINTY') );
#1210 = ( LENGTH_UNIT() NAMED_UNIT(*) SI_UNIT(.MILLI.,.METRE.) );
#1211 = ( NAMED_UNIT(*) PLANE_ANGLE_UNIT() SI_UNIT($,.RADIAN.) );
#1212 = ( NAMED_UNIT(*) SI_UNIT($,.STERADIAN.) SOLID_ANGLE_UNIT() );
#1213 = UNCERTAINTY_MEASURE_WITH_UNIT(LENGTH_MEASURE(1.E-07),#1210,
  'distance_accuracy_value','confusion accuracy');
#1214 = PRODUCT_RELATED_PRODUCT_CATEGORY('part',$,(#7));
ENDSEC;
END-ISO-10303-21;
